<?xml version="1.0" encoding="UTF-8"?>
<svg xmlns="http://www.w3.org/2000/svg" xmlns:xlink="http://www.w3.org/1999/xlink" width="33px" height="47px" viewBox="0 0 33 46" version="1.1">
<g id="surface1">
<path style=" stroke:none;fill-rule:evenodd;fill:rgb(17.254902%,17.254902%,16.862745%);fill-opacity:1;" d="M 7.957031 21.21875 C 9.21875 23.976562 8.835938 26.835938 7.097656 27.605469 C 5.363281 28.378906 2.933594 26.769531 1.675781 24.015625 C 0.414062 21.257812 0.796875 18.398438 2.535156 17.625 C 4.269531 16.855469 6.699219 18.464844 7.957031 21.21875 Z M 7.957031 21.21875 "/>
<path style=" stroke:none;fill-rule:evenodd;fill:rgb(17.254902%,17.254902%,16.862745%);fill-opacity:1;" d="M 25.113281 21.21875 C 23.855469 23.976562 24.238281 26.835938 25.972656 27.605469 C 27.710938 28.378906 30.136719 26.769531 31.398438 24.015625 C 32.660156 21.257812 32.273438 18.398438 30.539062 17.625 C 28.804688 16.855469 26.375 18.464844 25.113281 21.21875 Z M 25.113281 21.21875 "/>
<path style=" stroke:none;fill-rule:evenodd;fill:rgb(17.254902%,17.254902%,16.862745%);fill-opacity:1;" d="M 15.335938 15.695312 C 15.980469 18.648438 14.996094 21.367188 13.136719 21.761719 C 11.273438 22.15625 9.242188 20.082031 8.597656 17.125 C 7.949219 14.171875 8.933594 11.453125 10.796875 11.058594 C 12.65625 10.664062 14.691406 12.738281 15.335938 15.695312 Z M 15.335938 15.695312 "/>
<path style=" stroke:none;fill-rule:evenodd;fill:rgb(17.254902%,17.254902%,16.862745%);fill-opacity:1;" d="M 17.691406 15.695312 C 17.046875 18.652344 18.03125 21.367188 19.890625 21.761719 C 21.75 22.160156 23.785156 20.082031 24.429688 17.128906 C 25.078125 14.171875 24.089844 11.457031 22.230469 11.0625 C 20.371094 10.667969 18.335938 12.742188 17.691406 15.695312 Z M 17.691406 15.695312 "/>
<path style=" stroke:none;fill-rule:evenodd;fill:rgb(17.254902%,17.254902%,16.862745%);fill-opacity:1;" d="M 13.007812 25.574219 C 12.550781 26.347656 10.449219 28.90625 8.992188 29.78125 C 7.535156 30.652344 5.730469 31.933594 6.035156 34.867188 C 6.335938 37.804688 9.394531 39.0625 11.40625 38.953125 C 13.417969 38.839844 17.210938 38.476562 19.917969 38.847656 C 22.625 39.214844 26.042969 38.933594 26.84375 36.125 C 27.644531 33.3125 25.855469 31.519531 24.457031 30.503906 C 23.0625 29.488281 20.726562 26.449219 20.007812 25.050781 C 19.289062 23.65625 15.632812 21.101562 13.007812 25.574219 Z M 13.007812 25.574219 "/>
</g>
</svg>
